<?xml version="1.0" encoding="UTF-8" standalone="no"?>
<!DOCTYPE svg PUBLIC "-//W3C//DTD SVG 1.1//EN" "http://www.w3.org/Graphics/SVG/1.1/DTD/svg11.dtd">
<svg xmlns:xl="http://www.w3.org/1999/xlink" version="1.1" xmlns="http://www.w3.org/2000/svg" viewBox="256 534 241 242.034" width="241" height="242.034">
    <defs>
        <linearGradient x1="0" x2="1" id="Gradient" gradientUnits="userSpaceOnUse">
            <stop offset="0" stop-color="#e5eefe"/>
            <stop offset="1" stop-color="#e5eefe"/>
            <stop offset="1" stop-color="#e5eefe"/>
        </linearGradient>
        <linearGradient id="Obj_Gradient" xl:href="#Gradient" gradientTransform="translate(376 534) rotate(90) scale(240)"/>
        <linearGradient x1="0" x2="1" id="Gradient_2" gradientUnits="userSpaceOnUse">
            <stop offset="0" stop-color="#4b7ed6"/>
            <stop offset=".9996748" stop-color="#759ee7"/>
            <stop offset="1" stop-color="#9abcf6"/>
        </linearGradient>
        <linearGradient id="Obj_Gradient_2" xl:href="#Gradient_2" gradientTransform="translate(452.574 596.091) rotate(90) scale(155.384)"/>
        <linearGradient x1="0" x2="1" id="Gradient_3" gradientUnits="userSpaceOnUse">
            <stop offset="0" stop-color="#5c89d8"/>
            <stop offset=".9996196" stop-color="#a5beec"/>
            <stop offset="1" stop-color="#e5eefe"/>
        </linearGradient>
        <linearGradient id="Obj_Gradient_3" xl:href="#Gradient_3" gradientTransform="translate(446.0118 599.435) rotate(90) scale(156.545)"/>
        <linearGradient x1="0" x2="1" id="Gradient_4" gradientUnits="userSpaceOnUse">
            <stop offset="0" stop-color="#5c89d8"/>
            <stop offset=".9992112" stop-color="#a5beec"/>
            <stop offset="1" stop-color="#e5eefe"/>
        </linearGradient>
        <linearGradient id="Obj_Gradient_4" xl:href="#Gradient_4" gradientTransform="translate(439.126 602.744) rotate(90) scale(158.665)"/>
        <linearGradient x1="0" x2="1" id="Gradient_5" gradientUnits="userSpaceOnUse">
            <stop offset="0" stop-color="#5c89d8"/>
            <stop offset=".9996985" stop-color="#a5beec"/>
            <stop offset="1" stop-color="#e5eefe"/>
        </linearGradient>
        <linearGradient id="Obj_Gradient_5" xl:href="#Gradient_5" gradientTransform="translate(428.598 605.8) rotate(90) scale(160.385)"/>
        <linearGradient x1="0" x2="1" id="Gradient_6" gradientUnits="userSpaceOnUse">
            <stop offset="0" stop-color="#397df0"/>
            <stop offset=".999938" stop-color="#7aa6f8"/>
            <stop offset="1" stop-color="#b1cdff"/>
        </linearGradient>
        <linearGradient id="Obj_Gradient_6" xl:href="#Gradient_6" gradientTransform="translate(282.31714 786.6911) rotate(-56.4599) scale(242.6602)"/>
        <linearGradient x1="0" x2="1" id="Gradient_7" gradientUnits="userSpaceOnUse">
            <stop offset="0" stop-color="#6fa0f7"/>
            <stop offset=".9999313" stop-color="#8eb4f9"/>
            <stop offset="1" stop-color="#abc8fb"/>
        </linearGradient>
        <linearGradient id="Obj_Gradient_7" xl:href="#Gradient_7" gradientTransform="translate(306.449 597.787) scale(149.964)"/>
        <linearGradient x1="0" x2="1" id="Gradient_8" gradientUnits="userSpaceOnUse">
            <stop offset="0" stop-color="#2058b9"/>
            <stop offset=".9999036" stop-color="#4579d6"/>
            <stop offset="1" stop-color="#6598f1"/>
        </linearGradient>
        <linearGradient id="Obj_Gradient_8" xl:href="#Gradient_8" gradientTransform="translate(347.77438 631.7097) rotate(-49.12382) scale(68.35947)"/>
        <linearGradient x1="0" x2="1" id="Gradient_9" gradientUnits="userSpaceOnUse">
            <stop offset="0" stop-color="#73a5f8"/>
            <stop offset=".9999128" stop-color="#6ea2f8"/>
            <stop offset="1" stop-color="#6a9ff8"/>
        </linearGradient>
        <linearGradient id="Obj_Gradient_9" xl:href="#Gradient_9" gradientTransform="translate(323.15882 719.0211) rotate(-84.95151) scale(41.8455)"/>
        <linearGradient x1="0" x2="1" id="Gradient_10" gradientUnits="userSpaceOnUse">
            <stop offset="0" stop-color="#5d96f6"/>
            <stop offset=".9998458" stop-color="#86b0f9"/>
            <stop offset="1" stop-color="#abc8fb"/>
        </linearGradient>
        <linearGradient id="Obj_Gradient_10" xl:href="#Gradient_10" gradientTransform="translate(338.074 588.8175) scale(74.882)"/>
        <linearGradient x1="0" x2="1" id="Gradient_11" gradientUnits="userSpaceOnUse">
            <stop offset="0" stop-color="#5787d8"/>
            <stop offset=".9999016" stop-color="#78a2eb"/>
            <stop offset="1" stop-color="#96bbfd"/>
        </linearGradient>
        <linearGradient id="Obj_Gradient_11" xl:href="#Gradient_11" gradientTransform="translate(337.52 615.72915) scale(68.70322)"/>
        <linearGradient id="Obj_Gradient_12" xl:href="#Gradient" gradientTransform="translate(377 535) rotate(90) scale(240)"/>
        <linearGradient id="Obj_Gradient_13" xl:href="#Gradient_2" gradientTransform="translate(453.574 597.091) rotate(90) scale(155.384)"/>
        <linearGradient id="Obj_Gradient_14" xl:href="#Gradient_3" gradientTransform="translate(447.0118 600.435) rotate(90) scale(156.545)"/>
        <linearGradient id="Obj_Gradient_15" xl:href="#Gradient_4" gradientTransform="translate(440.126 603.744) rotate(90) scale(158.665)"/>
        <linearGradient id="Obj_Gradient_16" xl:href="#Gradient_5" gradientTransform="translate(429.598 606.8) rotate(90) scale(160.385)"/>
        <linearGradient id="Obj_Gradient_17" xl:href="#Gradient_6" gradientTransform="translate(283.31714 787.6911) rotate(-56.4599) scale(242.6602)"/>
        <linearGradient id="Obj_Gradient_18" xl:href="#Gradient_7" gradientTransform="translate(307.449 598.787) scale(149.964)"/>
        <linearGradient id="Obj_Gradient_19" xl:href="#Gradient_8" gradientTransform="translate(348.77438 632.7097) rotate(-49.12382) scale(68.35947)"/>
        <linearGradient id="Obj_Gradient_20" xl:href="#Gradient_9" gradientTransform="translate(324.15882 720.0211) rotate(-84.95151) scale(41.8455)"/>
        <linearGradient id="Obj_Gradient_21" xl:href="#Gradient_10" gradientTransform="translate(339.074 589.8175) scale(74.882)"/>
        <linearGradient id="Obj_Gradient_22" xl:href="#Gradient_11" gradientTransform="translate(338.52 616.72915) scale(68.70322)"/>
    </defs>
    <g id="Canvas_1" stroke-opacity="1" stroke="none" stroke-dasharray="none" fill="none" fill-opacity="1">
        <title>Canvas 1</title>
        <g id="Canvas_1: Layer 1">
            <title>Layer 1</title>
            <g id="Group_46">
                <g id="Graphic_21">
                    <title>椭圆形</title>
                    <circle cx="376" cy="654" r="120.000191748227" fill="url(#Obj_Gradient)"/>
                </g>
                <g id="Group_3">
                    <title>档案</title>
                    <g id="Graphic_20">
                        <title>路径</title>
                        <path d="M 447.956 602.036 L 456.413 596.091 L 456.413 686.059 L 456.427 687.143 L 456.474 688.979 L 456.574 691.786 L 456.761 695.786 L 457 700.24 L 458.282 721.964 L 458.635 728.364 L 458.823 732 L 458.974 735.425 L 459.09 738.588 L 459.143 740.526 C 455.02906 744.4828 450.63863 748.14176 446.005 751.475 Z" fill="url(#Obj_Gradient_2)"/>
                    </g>
                    <g id="Graphic_19">
                        <title>路径-2</title>
                        <path d="M 451.691 599.435 C 452.735 622.687 453.00533 647.389 452.502 673.541 L 452.36 680.109 L 452.186 686.738 C 452.154 687.848 452.12067 688.9603 452.086 690.075 L 451.863 696.794 C 451.82433 697.9193 451.78333 699.0467 451.74 700.176 L 451.469 706.986 C 451.32567 710.406 451.17033 713.8487 451.003 717.314 L 450.651 724.275 C 450.22233 732.4323 449.72767 740.712 449.167 749.114 C 445.9882 751.5684 442.687 753.8601 439.276 755.98 L 446.956 602.744 Z" fill="url(#Obj_Gradient_3)"/>
                    </g>
                    <g id="Graphic_18">
                        <title>路径-3</title>
                        <path d="M 442.074 606.171 L 446.957 602.744 L 447.328 607.985 L 447.552 612.937 L 447.752 617.837 L 447.935 622.681 L 448.099 627.472 L 448.242 632.209 L 448.365 636.892 L 448.465 641.522 L 448.548 646.098 C 448.56 646.856 448.57133 647.612 448.582 648.366 L 448.635 652.866 C 448.649 654.3553 448.66 655.8357 448.668 657.307 L 448.681 661.695 L 448.674 666.028 C 448.668 667.464 448.659 668.8907 448.647 670.308 L 448.599 674.535 C 448.57967 675.935 448.55733 677.3257 448.532 678.707 L 448.445 682.826 L 448.338 686.891 C 448.298 688.237 448.25533 689.574 448.21 690.902 L 448.063 694.86 L 447.895 698.76 C 447.86633 699.406 447.836 700.05 447.804 700.692 L 447.604 704.515 C 447.56867 705.1483 447.533 705.7787 447.497 706.406 L 447.27 710.149 L 447.022 713.837 L 446.755 717.472 C 446.70767 718.072 446.66033 718.672 446.613 719.272 L 446.313 722.826 C 446.261 723.414 446.20867 723.9997 446.156 724.583 L 445.828 728.056 L 445.481 731.476 L 445.113 734.842 L 444.725 738.154 C 444.06167 743.63 443.315 748.8817 442.485 753.909 C 438.34075 756.6755 434.0277 759.1804 429.571 761.409 Z" fill="url(#Obj_Gradient_4)"/>
                    </g>
                    <g id="Graphic_17">
                        <title>路径-4</title>
                        <path d="M 442.263 605.8 L 442.38 608.113 L 442.6 612.7 L 442.791 617.247 L 442.958 621.747 L 443.099 626.204 C 443.14167 627.682 443.18033 629.1527 443.215 630.616 L 443.306 634.984 C 443.35867 637.88 443.39467 640.7467 443.414 643.584 L 443.431 647.817 L 443.422 652.005 C 443.408 654.7823 443.37733 657.5297 443.33 660.247 L 443.247 664.301 L 443.138 668.31 C 443.03733 671.632 442.91067 674.9077 442.758 678.137 L 442.558 681.989 C 442.31467 686.4557 442.02067 690.8323 441.676 695.119 L 441.368 698.769 C 441.048 702.397 440.69 705.958 440.294 709.452 L 439.886 712.924 C 438.0256 729.1813 434.8431 745.2599 430.37 761 C 426.5692 762.9369 422.6669 764.6677 418.68 766.185 L 413.765 764.385 L 433.977 611.885 Z" fill="url(#Obj_Gradient_5)"/>
                    </g>
                    <g id="Graphic_16">
                        <title>路径-5</title>
                        <path d="M 378.193 575.767 C 379.132 570.367 384.237 567.741 392.813 568.583 C 401.452 569.43 405.591 573.195 404.642 578.82 C 404.089 582.092 401.649 585.714 398.765 588.338 L 398.371 588.684 L 399.057 612.913 L 394.457 613.044 L 393.739 587.688 C 393.71863 586.9504 394.05336 586.24785 394.639 585.799 C 397.239 583.799 399.697 580.485 400.107 578.055 C 400.538 575.498 398.646 573.777 392.365 573.161 C 385.92 572.529 383.182 573.937 382.727 576.555 C 382.31 578.955 383.707 582.619 385.892 585.247 C 386.36196 585.81154 386.534 586.5666 386.355 587.279 L 386.194 587.743 L 377.474 610.5 L 373.174 608.854 L 381.507 587.102 L 381.29 586.795 C 379.063 583.569 377.722 579.609 378.116 576.268 Z" fill="#7aaafc"/>
                    </g>
                    <g id="Graphic_15">
                        <title>路径_202</title>
                        <path d="M 433.977 611.883 L 306.449 596.091 L 306.449 662.986 C 306.449 662.986 309.303 717.035 264.732 743.732 C 264.732 743.732 287.109 763.907 324.773 763.907 C 362.437 763.907 395.84 775.034 395.84 775.034 C 395.84 775.034 433.977 766.967 433.977 671.655 Z" fill="url(#Obj_Gradient_6)"/>
                    </g>
                    <g id="Graphic_14">
                        <title>路径_211</title>
                        <path d="M 288 635.686 L 398.57 654.446 C 401.93445 655.1119 404.39017 658.0176 404.486 661.446 L 404.486 681.038 C 404.57977 683.0502 403.7273 684.99054 402.18188 686.2826 C 400.63643 687.57466 398.57576 688.0698 396.612 687.621 L 288.532 668.179 C 285.15776 667.4634 282.6905 664.56236 282.526 661.117 L 282.185 640.682 C 282.08873 639.1782 282.7042 637.7165 283.84717 636.7345 C 284.99013 635.75254 286.52788 635.3643 288 635.686 Z" fill="#f1f6ff"/>
                    </g>
                    <g id="Graphic_13">
                        <title>路径_203</title>
                        <path d="M 306.449 596.091 L 433.977 611.883 L 456.413 596.091 L 324.964 583.691 Z" fill="url(#Obj_Gradient_7)"/>
                    </g>
                    <g id="Graphic_12">
                        <title>路径_208</title>
                        <path d="M 338.074 588.417 L 342.011 615.668 L 402.211 623.314 L 400.173 594.431 Z" fill="url(#Obj_Gradient_8)"/>
                    </g>
                    <g id="Graphic_11">
                        <title>矩形-2</title>
                        <path d="M 287.9 681.106 L 362.1 695.028 C 365.46488 695.7612 367.89803 698.6917 368 702.134 L 368 710.359 C 368.0738 711.8652 367.43416 713.3182 366.2735 714.281 C 365.11283 715.2438 363.5666 715.6039 362.1 715.253 L 287.9 701.331 C 284.53512 700.5978 282.10197 697.6673 282 694.225 L 282 686 C 281.9262 684.4938 282.56584 683.0408 283.7265 682.078 C 284.88717 681.11524 286.4334 680.7551 287.9 681.106 Z" fill="url(#Obj_Gradient_9)"/>
                    </g>
                    <g id="Graphic_10">
                        <title>矩形-3</title>
                        <path d="M 317.964 646.375 L 394.035 660.9 C 395.1557 661.1491 395.9647 662.1265 396 663.274 L 396 667.274 C 396.02495 667.7754 395.81177 668.2592 395.4249 668.5791 C 395.038 668.8991 394.5228 669.0176 394.035 668.899 L 317.964 654.375 C 316.84317 654.12574 316.03438 653.1477 316 652 L 316 648 C 315.97514 647.4988 316.1882 647.0153 316.5748 646.6954 C 316.96144 646.3755 317.47633 646.2567 317.964 646.375 Z" fill="#558ff4"/>
                    </g>
                    <g id="Graphic_9">
                        <title>矩形-4</title>
                        <path d="M 317.956 658.418 L 348.044 664.856 C 349.1635 665.1337 349.96234 666.1212 350 667.274 L 350 671.274 C 350.02836 671.77185 349.81532 672.2529 349.4276 672.5665 C 349.0399 672.8801 348.5249 672.9878 348.044 672.856 L 317.956 666.418 C 316.8365 666.1403 316.03766 665.1528 316 664 L 316 660 C 315.97164 659.50215 316.18468 659.0211 316.5724 658.7075 C 316.9601 658.3939 317.4751 658.2862 317.956 658.418 Z" fill="#558ff4"/>
                    </g>
                    <g id="Graphic_8">
                        <title>路径_204</title>
                        <path d="M 338.074 588.417 L 349.562 583.204 L 412.956 589.454 L 400.176 594.431 Z" fill="url(#Obj_Gradient_10)"/>
                    </g>
                    <g id="Graphic_7">
                        <title>路径-6</title>
                        <path d="M 357.7 572.2 C 358.6 565.809 364.6 562.511 375.146 563.163 C 385.746 563.819 390.825 568.052 389.926 574.697 C 389.384 578.697 386.454 583.253 382.95 586.557 L 382.45 587.012 L 384.393 617.174 L 379.803 617.474 L 377.785 586.166 C 377.73704 585.42235 378.05235 584.70155 378.631 584.232 C 381.91 581.572 384.936 577.255 385.365 574.083 C 385.843 570.556 383.097 568.268 374.865 567.759 C 366.447 567.238 362.765 569.259 362.258 572.844 C 361.815 575.997 363.794 580.607 366.758 583.868 C 367.2582 584.419 367.4609 585.178 367.302 585.905 L 367.187 586.286 L 357.16 614.917 L 352.818 613.398 L 362.438 585.892 L 362.129 585.502 C 359.158 581.654 357.269 576.813 357.636 572.725 Z" fill="#7aaafc"/>
                    </g>
                    <g id="Graphic_6">
                        <title>路径-7</title>
                        <path d="M 337.55 611.507 C 337.80562 609.4293 339.62 607.9001 341.711 608 L 342.011 608.026 L 402.705 615.492 C 404.8428 615.7515 406.39145 617.6569 406.20856 619.8026 C 406.02566 621.9483 404.17687 623.5641 402.026 623.458 L 401.726 623.433 L 341.032 615.966 C 339.9789 615.83655 339.0204 615.294 338.36737 614.45776 C 337.71434 613.6215 337.42032 612.56006 337.55 611.507 Z" fill="url(#Obj_Gradient_11)"/>
                    </g>
                    <g id="Graphic_5">
                        <title>矩形-5</title>
                        <path d="M 291.939 641.7 L 306.061 644.2 C 308.30538 644.6631 309.9364 646.6092 310 648.9 L 310 662.9 C 310.045 663.9065 309.61838 664.8765 308.84608 665.5235 C 308.07378 666.1705 307.04405 666.42064 306.061 666.2 L 291.939 663.7 C 289.69482 663.23656 288.06398 661.2906 288 659 L 288 645 C 287.95498 643.9935 288.38162 643.0235 289.15392 642.3765 C 289.92622 641.7295 290.95595 641.47936 291.939 641.7 Z" fill="#558ff4"/>
                    </g>
                    <g id="Graphic_4">
                        <title>路径_205</title>
                        <path d="M 412.956 589.454 L 412.556 591.954 L 407.728 591.494 Z" fill="#2e67c7"/>
                    </g>
                </g>
                <g id="Graphic_45">
                    <title>椭圆形</title>
                    <circle cx="377" cy="655" r="120.000191748228" fill="url(#Obj_Gradient_12)"/>
                </g>
                <g id="Group_27">
                    <title>档案</title>
                    <g id="Graphic_44">
                        <title>路径</title>
                        <path d="M 448.956 603.036 L 457.413 597.091 L 457.413 687.059 L 457.427 688.143 L 457.474 689.979 L 457.574 692.786 L 457.761 696.786 L 458 701.24 L 459.282 722.964 L 459.635 729.364 L 459.823 733 L 459.974 736.425 L 460.09 739.588 L 460.143 741.526 C 456.02906 745.4828 451.63863 749.14176 447.005 752.475 Z" fill="url(#Obj_Gradient_13)"/>
                    </g>
                    <g id="Graphic_43">
                        <title>路径-2</title>
                        <path d="M 452.691 600.435 C 453.735 623.687 454.00533 648.389 453.502 674.541 L 453.36 681.109 L 453.186 687.738 C 453.154 688.848 453.12067 689.9603 453.086 691.075 L 452.863 697.794 C 452.82433 698.9193 452.78333 700.0467 452.74 701.176 L 452.469 707.986 C 452.32567 711.406 452.17033 714.8487 452.003 718.314 L 451.651 725.275 C 451.22233 733.4323 450.72767 741.712 450.167 750.114 C 446.9882 752.5684 443.687 754.8601 440.276 756.98 L 447.956 603.744 Z" fill="url(#Obj_Gradient_14)"/>
                    </g>
                    <g id="Graphic_42">
                        <title>路径-3</title>
                        <path d="M 443.074 607.171 L 447.957 603.744 L 448.328 608.985 L 448.552 613.937 L 448.752 618.837 L 448.935 623.681 L 449.099 628.472 L 449.242 633.209 L 449.365 637.892 L 449.465 642.522 L 449.548 647.098 C 449.56 647.856 449.57133 648.612 449.582 649.366 L 449.635 653.866 C 449.649 655.3553 449.66 656.8357 449.668 658.307 L 449.681 662.695 L 449.674 667.028 C 449.668 668.464 449.659 669.8907 449.647 671.308 L 449.599 675.535 C 449.57967 676.935 449.55733 678.3257 449.532 679.707 L 449.445 683.826 L 449.338 687.891 C 449.298 689.237 449.25533 690.574 449.21 691.902 L 449.063 695.86 L 448.895 699.76 C 448.86633 700.406 448.836 701.05 448.804 701.692 L 448.604 705.515 C 448.56867 706.1483 448.533 706.7787 448.497 707.406 L 448.27 711.149 L 448.022 714.837 L 447.755 718.472 C 447.70767 719.072 447.66033 719.672 447.613 720.272 L 447.313 723.826 C 447.261 724.414 447.20867 724.9997 447.156 725.583 L 446.828 729.056 L 446.481 732.476 L 446.113 735.842 L 445.725 739.154 C 445.06167 744.63 444.315 749.8817 443.485 754.909 C 439.34075 757.6755 435.0277 760.1804 430.571 762.409 Z" fill="url(#Obj_Gradient_15)"/>
                    </g>
                    <g id="Graphic_41">
                        <title>路径-4</title>
                        <path d="M 443.263 606.8 L 443.38 609.113 L 443.6 613.7 L 443.791 618.247 L 443.958 622.747 L 444.099 627.204 C 444.14167 628.682 444.18033 630.1527 444.215 631.616 L 444.306 635.984 C 444.35867 638.88 444.39467 641.7467 444.414 644.584 L 444.431 648.817 L 444.422 653.005 C 444.408 655.7823 444.37733 658.5297 444.33 661.247 L 444.247 665.301 L 444.138 669.31 C 444.03733 672.632 443.91067 675.9077 443.758 679.137 L 443.558 682.989 C 443.31467 687.4557 443.02067 691.8323 442.676 696.119 L 442.368 699.769 C 442.048 703.397 441.69 706.958 441.294 710.452 L 440.886 713.924 C 439.0256 730.1813 435.8431 746.2599 431.37 762 C 427.5692 763.9369 423.6669 765.6677 419.68 767.185 L 414.765 765.385 L 434.977 612.885 Z" fill="url(#Obj_Gradient_16)"/>
                    </g>
                    <g id="Graphic_40">
                        <title>路径-5</title>
                        <path d="M 379.193 576.767 C 380.132 571.367 385.237 568.741 393.813 569.583 C 402.452 570.43 406.591 574.195 405.642 579.82 C 405.089 583.092 402.649 586.714 399.765 589.338 L 399.371 589.684 L 400.057 613.913 L 395.457 614.044 L 394.739 588.688 C 394.71863 587.9504 395.05336 587.24785 395.639 586.799 C 398.239 584.799 400.697 581.485 401.107 579.055 C 401.538 576.498 399.646 574.777 393.365 574.161 C 386.92 573.529 384.182 574.937 383.727 577.555 C 383.31 579.955 384.707 583.619 386.892 586.247 C 387.36196 586.81154 387.534 587.5666 387.355 588.279 L 387.194 588.743 L 378.474 611.5 L 374.174 609.854 L 382.507 588.102 L 382.29 587.795 C 380.063 584.569 378.722 580.609 379.116 577.268 Z" fill="#7aaafc"/>
                    </g>
                    <g id="Graphic_39">
                        <title>路径_202</title>
                        <path d="M 434.977 612.883 L 307.449 597.091 L 307.449 663.986 C 307.449 663.986 310.303 718.035 265.732 744.732 C 265.732 744.732 288.109 764.907 325.773 764.907 C 363.437 764.907 396.84 776.034 396.84 776.034 C 396.84 776.034 434.977 767.967 434.977 672.655 Z" fill="url(#Obj_Gradient_17)"/>
                    </g>
                    <g id="Graphic_38">
                        <title>路径_211</title>
                        <path d="M 289 636.686 L 399.57 655.446 C 402.93445 656.1119 405.39017 659.0176 405.486 662.446 L 405.486 682.038 C 405.57977 684.0502 404.7273 685.99054 403.18188 687.2826 C 401.63643 688.57466 399.57576 689.0698 397.612 688.621 L 289.532 669.179 C 286.15776 668.4634 283.6905 665.56236 283.526 662.117 L 283.185 641.682 C 283.08873 640.1782 283.7042 638.7165 284.84717 637.7345 C 285.99013 636.75254 287.52788 636.3643 289 636.686 Z" fill="#f1f6ff"/>
                    </g>
                    <g id="Graphic_37">
                        <title>路径_203</title>
                        <path d="M 307.449 597.091 L 434.977 612.883 L 457.413 597.091 L 325.964 584.691 Z" fill="url(#Obj_Gradient_18)"/>
                    </g>
                    <g id="Graphic_36">
                        <title>路径_208</title>
                        <path d="M 339.074 589.417 L 343.011 616.668 L 403.211 624.314 L 401.173 595.431 Z" fill="url(#Obj_Gradient_19)"/>
                    </g>
                    <g id="Graphic_35">
                        <title>矩形-2</title>
                        <path d="M 288.9 682.106 L 363.1 696.028 C 366.46488 696.7612 368.89803 699.6917 369 703.134 L 369 711.359 C 369.0738 712.8652 368.43416 714.3182 367.2735 715.281 C 366.11283 716.2438 364.5666 716.6039 363.1 716.253 L 288.9 702.331 C 285.53512 701.5978 283.10197 698.6673 283 695.225 L 283 687 C 282.9262 685.4938 283.56584 684.0408 284.7265 683.078 C 285.88717 682.11524 287.4334 681.7551 288.9 682.106 Z" fill="url(#Obj_Gradient_20)"/>
                    </g>
                    <g id="Graphic_34">
                        <title>矩形-3</title>
                        <path d="M 318.964 647.375 L 395.035 661.9 C 396.1557 662.1491 396.9647 663.1265 397 664.274 L 397 668.274 C 397.02495 668.7754 396.81177 669.2592 396.4249 669.5791 C 396.038 669.8991 395.5228 670.0176 395.035 669.899 L 318.964 655.375 C 317.84317 655.12574 317.03438 654.1477 317 653 L 317 649 C 316.97514 648.4988 317.1882 648.0153 317.5748 647.6954 C 317.96144 647.3755 318.47633 647.2567 318.964 647.375 Z" fill="#558ff4"/>
                    </g>
                    <g id="Graphic_33">
                        <title>矩形-4</title>
                        <path d="M 318.956 659.418 L 349.044 665.856 C 350.1635 666.1337 350.96234 667.1212 351 668.274 L 351 672.274 C 351.02836 672.77185 350.81532 673.2529 350.4276 673.5665 C 350.0399 673.8801 349.5249 673.9878 349.044 673.856 L 318.956 667.418 C 317.8365 667.1403 317.03766 666.1528 317 665 L 317 661 C 316.97164 660.50215 317.18468 660.0211 317.5724 659.7075 C 317.9601 659.3939 318.4751 659.2862 318.956 659.418 Z" fill="#558ff4"/>
                    </g>
                    <g id="Graphic_32">
                        <title>路径_204</title>
                        <path d="M 339.074 589.417 L 350.562 584.204 L 413.956 590.454 L 401.176 595.431 Z" fill="url(#Obj_Gradient_21)"/>
                    </g>
                    <g id="Graphic_31">
                        <title>路径-6</title>
                        <path d="M 358.7 573.2 C 359.6 566.809 365.6 563.511 376.146 564.163 C 386.746 564.819 391.825 569.052 390.926 575.697 C 390.384 579.697 387.454 584.253 383.95 587.557 L 383.45 588.012 L 385.393 618.174 L 380.803 618.474 L 378.785 587.166 C 378.73704 586.42235 379.05235 585.70155 379.631 585.232 C 382.91 582.572 385.936 578.255 386.365 575.083 C 386.843 571.556 384.097 569.268 375.865 568.759 C 367.447 568.238 363.765 570.259 363.258 573.844 C 362.815 576.997 364.794 581.607 367.758 584.868 C 368.2582 585.419 368.4609 586.178 368.302 586.905 L 368.187 587.286 L 358.16 615.917 L 353.818 614.398 L 363.438 586.892 L 363.129 586.502 C 360.158 582.654 358.269 577.813 358.636 573.725 Z" fill="#7aaafc"/>
                    </g>
                    <g id="Graphic_30">
                        <title>路径-7</title>
                        <path d="M 338.55 612.507 C 338.80562 610.4293 340.62 608.9001 342.711 609 L 343.011 609.026 L 403.705 616.492 C 405.8428 616.7515 407.39145 618.6569 407.20856 620.8026 C 407.02566 622.9483 405.17687 624.5641 403.026 624.458 L 402.726 624.433 L 342.032 616.966 C 340.9789 616.83655 340.0204 616.294 339.36737 615.45776 C 338.71434 614.6215 338.42032 613.56006 338.55 612.507 Z" fill="url(#Obj_Gradient_22)"/>
                    </g>
                    <g id="Graphic_29">
                        <title>矩形-5</title>
                        <path d="M 292.939 642.7 L 307.061 645.2 C 309.30538 645.6631 310.9364 647.6092 311 649.9 L 311 663.9 C 311.045 664.9065 310.61838 665.8765 309.84608 666.5235 C 309.07378 667.1705 308.04405 667.4206 307.061 667.2 L 292.939 664.7 C 290.69482 664.23656 289.06398 662.2906 289 660 L 289 646 C 288.95498 644.9935 289.38162 644.0235 290.15392 643.3765 C 290.92622 642.7295 291.95595 642.47936 292.939 642.7 Z" fill="#558ff4"/>
                    </g>
                    <g id="Graphic_28">
                        <title>路径_205</title>
                        <path d="M 413.956 590.454 L 413.556 592.954 L 408.728 592.494 Z" fill="#2e67c7"/>
                    </g>
                </g>
            </g>
        </g>
    </g>
</svg>
