<svg xmlns="http://www.w3.org/2000/svg" width="58.146" height="179.4" viewBox="0 0 58.146 179.4">
  <g id="组_2333" transform="translate(3 3.854)">
    <path id="路径_821" d="M6696.625,818.5l-24.3,65.73,24.59,106.816L6721.5,884.23l-8.32-22.329" transform="translate(-6672.328 -818.5)" fill="none" stroke="#707070" stroke-linecap="round" stroke-linejoin="round" stroke-width="6"/>
    <g id="路径_822" transform="matrix(0.995, -0.105, 0.105, 0.995, 21.988, 22.569)" fill="#309fff">
      <path d="M 15.0847692489624 27.16963768005371 C 11.85680961608887 27.16963768005371 8.822059631347656 25.91259765625 6.539549350738525 23.63007736206055 C 4.257039070129395 21.34755706787109 2.999999284744263 18.31279754638672 2.999999284744263 15.0848274230957 C 2.999999284744263 11.856858253479 4.257039070129395 8.822088241577148 6.539549350738525 6.539567947387695 C 8.82206916809082 4.257047653198242 11.85681915283203 2.999997854232788 15.08477878570557 2.999997854232788 C 18.3127384185791 2.999997854232788 21.34748840332031 4.257038116455078 23.62998962402344 6.539557933807373 C 25.91249847412109 8.822077751159668 27.1695384979248 11.85683822631836 27.1695384979248 15.08481788635254 C 27.1695384979248 18.31278800964355 25.91249847412109 21.34755706787109 23.62998008728027 23.63007736206055 C 21.34746932983398 25.91259765625 18.31271934509277 27.16963768005371 15.0847692489624 27.16963768005371 Z" stroke="none"/>
      <path d="M 15.08477878570557 5.999998092651367 L 15.08478927612305 5.999998092651367 C 10.07541847229004 6.000007629394531 6 10.07543754577637 6 15.0848274230957 C 6 20.09420776367188 10.07540893554688 24.16963768005371 15.0847692489624 24.16963768005371 C 20.09412002563477 24.16963768005371 24.16952896118164 20.09419822692871 24.16954040527344 15.08481788635254 C 24.16954040527344 10.0754280090332 20.09412956237793 5.999998092651367 15.08477878570557 5.999998092651367 M 15.08477878570557 -1.9073486328125e-06 C 23.41586875915527 -1.9073486328125e-06 30.1695384979248 6.753698348999023 30.1695384979248 15.08481788635254 C 30.16952896118164 23.41592788696289 23.41584968566895 30.16963768005371 15.0847692489624 30.16963768005371 C 6.753679275512695 30.16963768005371 0 23.41593742370605 0 15.0848274230957 C 0 6.753707885742188 6.753688812255859 7.62939453125e-06 15.08477878570557 -1.9073486328125e-06 Z" stroke="none" fill="#2680eb"/>
    </g>
  </g>
</svg>
