<svg xmlns="http://www.w3.org/2000/svg" width="156.559" height="161.304" viewBox="0 0 156.559 161.304">
  <g id="组_2334" data-name="组 2334" transform="translate(0.287 0)">
    <path id="路径_247" data-name="路径 247" d="M39.59,1.227,3.134,146.764,136.41,65.155Z" transform="translate(15.415 6.037)" fill="none"/>
    <line id="直线_13" data-name="直线 13" x2="82.852" y2="65.098" transform="translate(55.055 9.955)" fill="none" stroke="#707070" stroke-linecap="round" stroke-width="6"/>
    <line id="直线_14" data-name="直线 14" x1="56.148" y2="41.062" transform="translate(52.168 91.335)" fill="none" stroke="#707070" stroke-linecap="round" stroke-width="6"/>
    <line id="直线_15" data-name="直线 15" x1="44.111" y2="130.234" transform="matrix(0.995, -0.105, 0.105, 0.995, 14.179, 11.619)" fill="none" stroke="#707070" stroke-linecap="round" stroke-width="6"/>
    <g id="椭圆_3" data-name="椭圆 3" transform="matrix(0.995, -0.105, 0.105, 0.995, 40.764, 3.189)" fill="#309fff" stroke="#2680eb" stroke-width="6">
      <ellipse cx="15.253" cy="15.253" rx="15.253" ry="15.253" stroke="none"/>
      <ellipse cx="15.253" cy="15.253" rx="12.253" ry="12.253" fill="none"/>
    </g>
    <g id="椭圆_4" data-name="椭圆 4" transform="matrix(0.995, -0.105, 0.105, 0.995, -0.286, 108.989)" fill="#309fff" stroke="#2680eb" stroke-width="6">
      <ellipse cx="26.302" cy="26.302" rx="22.302" ry="22.302" stroke="none"/>
      <ellipse cx="26.302" cy="26.302" rx="20.302" ry="20.302" fill="none"/>
    </g>
    <g id="椭圆_2" data-name="椭圆 2" transform="matrix(0.995, -0.105, 0.105, 0.995, 115.784, 51.369)" fill="#309fff" stroke="#2680eb" stroke-width="6">
      <ellipse cx="18.304" cy="19.524" rx="18.304" ry="19.524" stroke="none"/>
      <ellipse cx="18.304" cy="19.524" rx="15.304" ry="16.524" fill="none"/>
    </g>
  </g>
</svg>

