<?xml version="1.0" encoding="UTF-8" standalone="no"?>
<!DOCTYPE svg PUBLIC "-//W3C//DTD SVG 1.1//EN" "http://www.w3.org/Graphics/SVG/1.1/DTD/svg11.dtd">
<svg xmlns:dc="http://purl.org/dc/elements/1.1/" version="1.1" xmlns="http://www.w3.org/2000/svg" xmlns:xl="http://www.w3.org/1999/xlink" viewBox="102 260.3453 175 112.11537" width="175" height="112.11537">
    <defs>
        <linearGradient x1="0" x2="1" id="Gradient" gradientUnits="userSpaceOnUse">
            <stop offset="0" stop-color="#72a0e8"/>
            <stop offset="0" stop-color="#6596ed"/>
            <stop offset="1" stop-color="#578cf1"/>
        </linearGradient>
        <linearGradient id="Obj_Gradient" xl:href="#Gradient" gradientTransform="translate(111.5 336) rotate(90) scale(22.5)"/>
        <linearGradient x1="0" x2="1" id="Gradient_2" gradientUnits="userSpaceOnUse">
            <stop offset="0" stop-color="#acf"/>
            <stop offset="0" stop-color="#a3c9fe"/>
            <stop offset="1" stop-color="#9bc6fd"/>
        </linearGradient>
        <linearGradient id="Obj_Gradient_2" xl:href="#Gradient_2" gradientTransform="translate(105 336) rotate(90) scale(22.5)"/>
        <linearGradient id="Obj_Gradient_3" xl:href="#Gradient" gradientTransform="translate(125.30769 317) rotate(90) scale(17.307692)"/>
        <linearGradient id="Obj_Gradient_4" xl:href="#Gradient_2" gradientTransform="translate(120.30769 317) rotate(90) scale(17.307692)"/>
        <linearGradient id="Obj_Gradient_5" xl:href="#Gradient" gradientTransform="translate(274.3077 326) rotate(90) scale(17.307692)"/>
        <linearGradient id="Obj_Gradient_6" xl:href="#Gradient_2" gradientTransform="translate(269.3077 326) rotate(90) scale(17.307692)"/>
        <linearGradient x1="0" x2="1" id="Gradient_3" gradientUnits="userSpaceOnUse">
            <stop offset="0" stop-color="#7da7f0"/>
            <stop offset="0" stop-color="#5f90e7"/>
            <stop offset="1" stop-color="#3f77dd"/>
        </linearGradient>
        <linearGradient id="Obj_Gradient_7" xl:href="#Gradient_3" gradientTransform="translate(197.48218 291.9334) rotate(73.42065) scale(86.96586)"/>
        <linearGradient x1="0" x2="1" id="Gradient_4" gradientUnits="userSpaceOnUse">
            <stop offset="0" stop-color="#9ebcf9"/>
            <stop offset="0" stop-color="#8fb1f4"/>
            <stop offset="1" stop-color="#7fa6ee"/>
        </linearGradient>
        <linearGradient id="Obj_Gradient_8" xl:href="#Gradient_4" gradientTransform="translate(163.50538 370.7635) rotate(-79.53175) scale(79.19243)"/>
        <linearGradient x1="0" x2="1" id="Gradient_5" gradientUnits="userSpaceOnUse">
            <stop offset="0" stop-color="#bfd3f7"/>
            <stop offset=".214787" stop-color="#a1bef4"/>
            <stop offset="1" stop-color="#80a8f0"/>
        </linearGradient>
        <linearGradient id="Obj_Gradient_9" xl:href="#Gradient_5" gradientTransform="translate(154.16978 300.97878) rotate(63.70718) scale(82.77341)"/>
        <linearGradient x1="0" x2="1" id="Gradient_6" gradientUnits="userSpaceOnUse">
            <stop offset="0" stop-color="#6192ec"/>
            <stop offset="0" stop-color="#7ea8f6"/>
            <stop offset="1" stop-color="#99bcff"/>
        </linearGradient>
        <linearGradient id="Obj_Gradient_10" xl:href="#Gradient_6" gradientTransform="translate(192.18177 369.12576) rotate(-51.37977) scale(78.56761)"/>
        <linearGradient x1="0" x2="1" id="Gradient_7" gradientUnits="userSpaceOnUse">
            <stop offset="0" stop-color="#a5c3ff"/>
            <stop offset="0" stop-color="#b6cfff"/>
            <stop offset="1" stop-color="#c7dbfe"/>
        </linearGradient>
        <linearGradient id="Obj_Gradient_11" xl:href="#Gradient_7" gradientTransform="translate(141.967 303.70672) rotate(90) scale(26.27405)"/>
        <linearGradient x1="0" x2="1" id="Gradient_8" gradientUnits="userSpaceOnUse">
            <stop offset="0" stop-color="#5380dd"/>
            <stop offset="0" stop-color="#7fa2ef"/>
            <stop offset="1" stop-color="#a7c2ff"/>
        </linearGradient>
        <linearGradient id="Obj_Gradient_12" xl:href="#Gradient_8" gradientTransform="translate(139.6639 330.67174) rotate(-75.088985) scale(24.831948)"/>
        <linearGradient x1="0" x2="1" id="Gradient_9" gradientUnits="userSpaceOnUse">
            <stop offset="0" stop-color="#e0ecff"/>
            <stop offset="0" stop-color="#bacef8"/>
            <stop offset="1" stop-color="#90aff0"/>
        </linearGradient>
        <linearGradient id="Obj_Gradient_13" xl:href="#Gradient_9" gradientTransform="translate(209.88973 334.7319) scale(39.796067)"/>
        <linearGradient x1="0" x2="1" id="Gradient_10" gradientUnits="userSpaceOnUse">
            <stop offset="0" stop-color="#b4ccf1"/>
            <stop offset=".8547529" stop-color="#759ae7"/>
            <stop offset="1" stop-color="#759ae7"/>
        </linearGradient>
        <linearGradient id="Obj_Gradient_14" xl:href="#Gradient_10" gradientTransform="translate(195.15905 322.3408) rotate(3.819178) scale(55.84803)"/>
        <linearGradient x1="0" x2="1" id="Gradient_11" gradientUnits="userSpaceOnUse">
            <stop offset="0" stop-color="#3667e6"/>
            <stop offset="0" stop-color="#86a9f3"/>
            <stop offset="1" stop-color="#c9e5ff"/>
        </linearGradient>
        <linearGradient id="Obj_Gradient_15" xl:href="#Gradient_11" gradientTransform="translate(190.71163 315.63637) rotate(-72.04116) scale(34.79779)"/>
        <linearGradient x1="0" x2="1" id="Gradient_12" gradientUnits="userSpaceOnUse">
            <stop offset="0" stop-color="#557dd4"/>
            <stop offset="0" stop-color="#4974d5"/>
            <stop offset="1" stop-color="#3c6cd6"/>
        </linearGradient>
        <linearGradient id="Obj_Gradient_16" xl:href="#Gradient_12" gradientTransform="translate(213.40664 284.25993) rotate(-75.13159) scale(12.980634)"/>
        <linearGradient x1="0" x2="1" id="Gradient_13" gradientUnits="userSpaceOnUse">
            <stop offset="0" stop-color="#5b87d9"/>
            <stop offset="0" stop-color="#4677ce"/>
            <stop offset="1" stop-color="#3066c2"/>
        </linearGradient>
        <linearGradient id="Obj_Gradient_17" xl:href="#Gradient_13" gradientTransform="translate(210.99714 270.302) rotate(-3.8433333) scale(24.723618)"/>
        <linearGradient x1="0" x2="1" id="Gradient_14" gradientUnits="userSpaceOnUse">
            <stop offset="0" stop-color="#81b0f8"/>
            <stop offset="0" stop-color="#93bbf8"/>
            <stop offset="1" stop-color="#a5c5f8"/>
        </linearGradient>
        <linearGradient id="Obj_Gradient_18" xl:href="#Gradient_14" gradientTransform="translate(219.51149 281.77532) rotate(-64.54291) scale(26.05309)"/>
    </defs>
    <metadata> Produced by OmniGraffle 7.15.2
        <dc:date>2021-08-17 16:20:44 +0000</dc:date>
    </metadata>
    <g id="Canvas_1" stroke="none" fill-opacity="1" stroke-opacity="1" fill="none" stroke-dasharray="none">
        <title>Canvas 1</title>
        <g id="Canvas_1: Layer 1">
            <title>Layer 1</title>
            <g id="Group_69">
                <g id="Group_43">
                    <title>树</title>
                    <g id="Graphic_46">
                        <title>矩形</title>
                        <path d="M 108 344.4375 L 111 344.4375 L 111 359.8125 C 111 360.64093 110.32843 361.3125 109.5 361.3125 C 108.67157 361.3125 108 360.64093 108 359.8125 Z" fill="#316dd1"/>
                    </g>
                    <g id="Graphic_45">
                        <title>路径-18</title>
                        <path d="M 108 336 L 115 353.8125 L 108 358.5 Z" fill="url(#Obj_Gradient)"/>
                    </g>
                    <g id="Graphic_44">
                        <title>路径-18</title>
                        <path d="M 108 336 L 102 355.6875 L 108 358.5 Z" fill="url(#Obj_Gradient_2)"/>
                    </g>
                </g>
                <g id="Group_39">
                    <title>树备份</title>
                    <g id="Graphic_42">
                        <title>矩形</title>
                        <path d="M 122.61538 323.4904 L 124.92308 323.4904 L 124.92308 335.3173 C 124.92308 335.95456 124.40648 336.47115 123.76923 336.47115 C 123.13198 336.47115 122.61538 335.95456 122.61538 335.3173 Z" fill="#316dd1"/>
                    </g>
                    <g id="Graphic_41">
                        <title>路径-18</title>
                        <path d="M 122.61538 317 L 128 330.70192 L 122.61538 334.3077 Z" fill="url(#Obj_Gradient_3)"/>
                    </g>
                    <g id="Graphic_40">
                        <title>路径-18</title>
                        <path d="M 122.61538 317 L 118 332.14423 L 122.61538 334.3077 Z" fill="url(#Obj_Gradient_4)"/>
                    </g>
                </g>
                <g id="Group_35">
                    <title>树备份-2</title>
                    <g id="Graphic_38">
                        <title>矩形</title>
                        <path d="M 271.6154 332.4904 L 273.92308 332.4904 L 273.92308 344.3173 C 273.92308 344.95456 273.40648 345.47115 272.76923 345.47115 C 272.13198 345.47115 271.6154 344.95456 271.6154 344.3173 Z" fill="#316dd1"/>
                    </g>
                    <g id="Graphic_37">
                        <title>路径-18</title>
                        <path d="M 271.6154 326 L 277 339.70192 L 271.6154 343.3077 Z" fill="url(#Obj_Gradient_5)"/>
                    </g>
                    <g id="Graphic_36">
                        <title>路径-18</title>
                        <path d="M 271.6154 326 L 267 341.14423 L 271.6154 343.3077 Z" fill="url(#Obj_Gradient_6)"/>
                    </g>
                </g>
                <g id="Group_10">
                    <title>盒子</title>
                    <g id="Graphic_34">
                        <title>路径-33</title>
                        <path d="M 188 294.75645 L 231.77945 304.98553 L 231.77945 354.08834 L 196.35631 372.46067 L 188 368.89625 Z" fill="url(#Obj_Gradient_7)"/>
                    </g>
                    <g id="Graphic_33">
                        <title>路径-32</title>
                        <path d="M 153.39928 303.70672 L 188 294.75645 L 188 368.89625 L 153.39928 352.875 Z" fill="url(#Obj_Gradient_8)"/>
                    </g>
                    <g id="Graphic_32">
                        <title>路径-30</title>
                        <path d="M 148.64847 303.70672 L 148.64847 352.06293 L 196.35631 372.46067 L 196.35631 317.5901 L 196.35631 316.3252 L 153.39928 303.70672 Z" fill="#c3e3ff"/>
                    </g>
                    <g id="Graphic_31">
                        <title>路径-30</title>
                        <path d="M 148.64847 303.70672 L 148.64847 352.06293 L 196.35631 372.46067 L 196.35631 317.5901 Z" fill="url(#Obj_Gradient_9)"/>
                    </g>
                    <g id="Graphic_30">
                        <title>路径-31</title>
                        <path d="M 196.35631 317.5901 L 196.35631 372.46067 L 237.04564 351.38007 L 237.04564 304.40597 L 231.77945 304.98553 L 196.35631 316.3252 Z" fill="#b4d5ff"/>
                    </g>
                    <g id="Graphic_29">
                        <title>路径-31</title>
                        <path d="M 196.35631 317.5901 L 196.35631 372.46067 L 237.04564 351.38007 L 237.04564 304.40597 Z" fill="url(#Obj_Gradient_10)"/>
                    </g>
                    <g id="Graphic_28">
                        <title>路径-34</title>
                        <path d="M 153.39928 303.70672 L 188 294.75645 L 188 292.74726 L 148.64847 303.70672 Z" fill="#cee4fe"/>
                    </g>
                    <g id="Graphic_27">
                        <title>路径-35</title>
                        <path d="M 188 292.74726 L 237.04564 304.40597 L 231.77945 304.98553 L 188 294.75645 Z" fill="#a5bffb"/>
                    </g>
                    <g id="Graphic_26">
                        <title>路径-36</title>
                        <path d="M 148.64847 303.70672 L 148.64847 329.98077 L 135.28553 322.20666 Z" fill="url(#Obj_Gradient_11)"/>
                    </g>
                    <g id="Graphic_25">
                        <title>路径-36</title>
                        <path d="M 148.64847 307.36694 L 148.64847 329.98077 L 137.06904 323.25256 Z" fill="url(#Obj_Gradient_12)"/>
                    </g>
                    <g id="Graphic_24">
                        <title>路径-37</title>
                        <path d="M 237.04564 304.40597 L 237.04564 331.71948 L 249.6858 324.3729 Z" fill="#d8d8d8"/>
                    </g>
                    <g id="Graphic_23">
                        <title>路径-3</title>
                        <path d="M 196.35631 317.5901 L 196.35631 321.45684 L 208.66239 345.09087 L 209.88973 345.09087 L 209.88973 343.3077 Z" fill="#b0d5ff"/>
                    </g>
                    <g id="Graphic_22">
                        <title>路径-2</title>
                        <path d="M 209.88973 343.3077 L 209.88973 345.09087 L 249.6858 325.4127 L 249.6858 324.3729 Z" fill="url(#Obj_Gradient_13)"/>
                    </g>
                    <g id="Graphic_21">
                        <title>路径</title>
                        <path d="M 196.35631 317.5901 L 209.88973 343.9956 L 249.6858 324.3729 L 237.04564 304.40597 Z" fill="url(#Obj_Gradient_14)"/>
                    </g>
                    <g id="Graphic_20">
                        <title>路径-38</title>
                        <path d="M 186.4268 313.9416 C 186.7702 312.9605 187.11567 312.0287 187.46318 311.14625 L 186.53274 310.77982 C 186.1804 311.67448 185.83049 312.6183 185.48294 313.61126 Z M 188.62105 308.40532 C 189.05828 307.44457 189.49844 306.56043 189.94138 305.753 L 189.06464 305.27203 C 188.6093 306.10207 188.1581 307.0084 187.71087 307.9911 Z M 191.49555 303.25053 C 192.12479 302.3693 192.75752 301.6413 193.39232 301.06617 L 192.72091 300.32508 C 192.0298 300.9512 191.35054 301.73276 190.68172 302.6694 Z M 195.76036 299.63597 C 196.69694 299.36566 197.65492 299.4739 198.35122 299.88747 L 198.86188 299.0277 C 197.92332 298.47024 196.67996 298.32975 195.48307 298.67518 Z M 199.10906 301.91322 C 198.85623 302.5105 198.07878 303.17567 197.09603 303.61248 L 197.5022 304.52628 C 198.69642 303.99547 199.66395 303.16767 200.02995 302.30305 Z M 194.41875 304.02134 C 193.53291 303.8464 192.91181 303.29702 192.6133 302.3134 L 191.6564 302.6038 C 192.06349 303.9452 192.98094 304.75673 194.22501 305.0024 Z M 192.499 299.62623 L 192.5316 299.3912 C 192.62428 298.7707 192.97618 298.00203 193.59944 297.08727 L 192.77302 296.5242 C 192.07228 297.5527 191.6609 298.4513 191.54251 299.2438 L 191.50716 299.4988 Z M 195.43776 294.81233 C 196.03976 294.15268 196.73317 293.4477 197.51784 292.69765 L 196.82687 291.97477 C 196.02646 292.73986 195.31725 293.4609 194.69912 294.13824 Z M 199.74083 290.66617 L 200.1707 290.2908 L 201.06724 289.522 L 202.01284 288.72912 L 201.37433 287.9595 C 200.55878 288.63614 199.79425 289.28796 199.08072 289.915 Z M 204.31201 286.8635 L 204.88148 286.41278 L 206.0603 285.4918 C 206.2612 285.33615 206.4643 285.1794 206.66964 285.02158 L 206.06022 284.22873 L 204.8484 285.16767 C 204.45331 285.47634 204.06707 285.7807 203.68968 286.08075 Z" fill="url(#Obj_Gradient_15)"/>
                    </g>
                    <g id="Group_17">
                        <title>路径-45</title>
                        <g id="Graphic_19">
                            <title>path-15</title>
                            <path d="M 154.6711 318.02615 L 154.6711 320.82307 L 187.5 331.0179 L 187.5 327.45177 Z" fill="black"/>
                        </g>
                        <g id="Graphic_18">
                            <title>path-15</title>
                            <path d="M 154.6711 318.02615 L 154.6711 320.82307 L 187.5 331.0179 L 187.5 327.45177 Z" fill="#d6e8fe"/>
                        </g>
                    </g>
                    <g id="Group_14">
                        <title>路径-46</title>
                        <g id="Graphic_16">
                            <title>path-17</title>
                            <path d="M 154.6711 328.42066 L 154.6711 331.5682 L 173.03967 337.7079 L 173.03967 334.533 Z" fill="black"/>
                        </g>
                        <g id="Graphic_15">
                            <title>path-17</title>
                            <path d="M 154.6711 328.42066 L 154.6711 331.5682 L 173.03967 337.7079 L 173.03967 334.533 Z" fill="#d6e8fe"/>
                        </g>
                    </g>
                    <g id="Group_11">
                        <title>路径-47</title>
                        <g id="Graphic_13">
                            <title>path-19</title>
                            <path d="M 154.6711 339.73935 L 154.6711 342.84995 L 169.98013 348.8861 L 169.98013 345.47448 Z" fill="black"/>
                        </g>
                        <g id="Graphic_12">
                            <title>path-19</title>
                            <path d="M 154.6711 339.73935 L 154.6711 342.84995 L 169.98013 348.8861 L 169.98013 345.47448 Z" fill="#d6e8fe"/>
                        </g>
                    </g>
                </g>
                <g id="Group_3">
                    <title>飞机</title>
                    <g id="Graphic_9">
                        <title>路径-42</title>
                        <path d="M 211.5547 272.2056 L 211.5547 283.76826 L 218.5894 276.416 Z" fill="url(#Obj_Gradient_16)"/>
                    </g>
                    <g id="Graphic_8">
                        <title>路径-41</title>
                        <path d="M 235.1076 260.3453 L 211.5547 272.2056 L 211.5547 273.7919 L 216.47612 278.6015 Z" fill="url(#Obj_Gradient_17)"/>
                    </g>
                    <g id="Graphic_7">
                        <title>路径-44</title>
                        <path d="M 225.6498 279.68183 L 224.85468 281.23714 L 215.07205 276.3695 L 215.1139 274.64574 Z" fill="#abcefe"/>
                    </g>
                    <g id="Graphic_6">
                        <title>路径-39</title>
                        <path d="M 235.1076 260.3453 L 203.79258 266.1332 L 211.5547 272.2056 Z" fill="#bdd0f7"/>
                    </g>
                    <g id="Graphic_5">
                        <title>路径-40</title>
                        <path d="M 235.1076 260.3453 L 225.6498 279.68183 L 215.1139 274.72885 Z" fill="url(#Obj_Gradient_18)"/>
                    </g>
                    <g id="Graphic_4">
                        <title>路径-43</title>
                        <path d="M 203.79258 266.1332 L 201.56545 266.7086 L 211.5547 274.64574 L 211.5547 272.2056 Z" fill="#cddcfa"/>
                    </g>
                </g>
            </g>
        </g>
    </g>
</svg>
