<?xml version="1.0" encoding="UTF-8" standalone="no"?>
<!DOCTYPE svg PUBLIC "-//W3C//DTD SVG 1.1//EN" "http://www.w3.org/Graphics/SVG/1.1/DTD/svg11.dtd">
<svg xmlns:xl="http://www.w3.org/1999/xlink" version="1.1" xmlns="http://www.w3.org/2000/svg" viewBox="196.5 425 418.017 230.0764" width="418.017" height="230.0764">
    <defs>
        <linearGradient x1="0" x2="1" id="Gradient" gradientUnits="userSpaceOnUse">
            <stop offset="0" stop-color="#81c1ff"/>
            <stop offset=".9999534" stop-color="#66a8ff"/>
            <stop offset="1" stop-color="#4a8dfd"/>
        </linearGradient>
        <linearGradient id="Obj_Gradient" xl:href="#Gradient" gradientTransform="translate(379.077 496.6764) rotate(90) scale(158.4)"/>
        <linearGradient x1="0" x2="1" id="Gradient_2" gradientUnits="userSpaceOnUse">
            <stop offset="0" stop-color="#70b6f7"/>
            <stop offset="1" stop-color="#579bf2"/>
            <stop offset="1" stop-color="#3d7fec"/>
        </linearGradient>
        <linearGradient id="Obj_Gradient_2" xl:href="#Gradient_2" gradientTransform="translate(491.696 496.6694) rotate(90) scale(158.406)"/>
        <linearGradient x1="0" x2="1" id="Gradient_3" gradientUnits="userSpaceOnUse">
            <stop offset="0" stop-color="#81c1ff"/>
            <stop offset=".9995736" stop-color="#66a8ff"/>
            <stop offset="1" stop-color="#4a8dfd"/>
        </linearGradient>
        <linearGradient id="Obj_Gradient_3" xl:href="#Gradient_3" gradientTransform="translate(407.9788 421.5929) rotate(81.00048) scale(59.96313)"/>
        <linearGradient x1="0" x2="1" id="Gradient_4" gradientUnits="userSpaceOnUse">
            <stop offset="0" stop-color="#fb559f"/>
            <stop offset=".999823" stop-color="#f63978"/>
            <stop offset="1" stop-color="#ef234d"/>
        </linearGradient>
        <linearGradient id="Obj_Gradient_4" xl:href="#Gradient_4" gradientTransform="translate(511.8742 448.1704) rotate(41.582784) scale(20.328466)"/>
    </defs>
    <g id="Canvas_1" stroke-opacity="1" stroke="none" stroke-dasharray="none" fill="none" fill-opacity="1">
        <title>Canvas 1</title>
        <g id="Canvas_1: Layer 1">
            <title>Layer 1</title>
            <g id="Group_52">
                <g id="Graphic_51">
                    <title>路径</title>
                    <path d="M 341.123 454.0774 C 341.58634 454.1912 341.86972 454.65904 341.756 455.1224 C 339.106 465.9224 340.2 473.6044 344.933 478.2554 C 346.3348 479.6369 347.9489 480.7848 349.714 481.6554 L 350.448 482.0234 L 351.24 482.3984 L 352.096 482.7854 L 353.022 483.1854 L 354.022 483.6074 L 356.335 484.5564 L 357.435 485.0224 C 357.614 485.0994 357.79 485.1764 357.965 485.2534 L 358.984 485.7124 C 364.934 488.4584 368.018 491.1264 370.492 496.3014 C 370.6807 496.72907 370.4955 497.2293 370.0738 497.43096 C 369.65208 497.6326 369.14643 497.46277 368.932 497.0474 C 366.862 492.7154 364.332 490.2984 359.632 487.9394 L 358.724 487.4974 L 357.762 487.0534 C 357.43333 486.9054 357.09433 486.75607 356.745 486.6054 L 355.669 486.1514 L 353.329 485.1914 C 353.14767 485.11607 352.97067 485.04173 352.798 484.9684 L 351.798 484.5394 L 350.87 484.1274 C 348.2114 483.0539 345.78477 481.4778 343.723 479.4854 C 338.478 474.3324 337.298 466.0424 340.079 454.7084 C 340.17997 454.2976 340.56322 454.0201 340.985 454.0524 Z" fill="#639bff"/>
                </g>
                <g id="Graphic_50">
                    <title>路径-2</title>
                    <path d="M 474.048 438.7704 C 474.24204 438.33484 474.75224 438.1388 475.188 438.3324 L 475.862 438.6324 L 477.175 439.2324 C 477.60633 439.4324 478.02967 439.6324 478.445 439.8324 L 479.67 440.4324 L 480.851 441.0324 C 481.42967 441.33173 481.99233 441.63173 482.539 441.9324 L 483.609 442.5324 C 484.831 443.2284 485.96267 443.92273 487.004 444.6154 L 487.873 445.2084 C 493.524 449.1604 496.202 453.0624 495.858 456.9774 C 495.605 459.8484 493.896 461.6144 489.696 463.4774 L 488.952 463.7984 L 488.152 464.1224 L 487.307 464.4514 L 485.94 464.9574 L 484.452 465.4804 L 481.331 466.5394 L 480.313 466.8964 L 479.353 467.2444 L 478.453 467.5844 L 477.605 467.9184 L 477.205 468.0824 L 476.437 468.4084 C 476.19 468.5174 475.951 468.6244 475.721 468.7314 L 475.056 469.0524 C 472.172 470.4944 470.774 471.9144 470.281 473.8424 C 469.463 477.0424 469.661 479.5774 470.703 483.6614 L 471.103 485.2114 L 471.328 486.1114 L 471.528 486.9404 C 471.557 487.0724 471.586 487.2024 471.613 487.3294 L 471.759 488.0594 C 472.259 490.7474 472.039 492.1794 470.97 494.0854 C 468.718 498.1024 462.241 499.9594 451.562 499.8734 C 451.0848 499.86953 450.70113 499.4796 450.705 499.0024 C 450.70887 498.5252 451.0988 498.14153 451.576 498.1454 C 452.43467 498.15273 453.26367 498.14673 454.063 498.1274 L 455.239 498.0894 L 456.37 498.0324 C 463.577 497.6004 467.938 495.9614 469.463 493.2394 C 470.298 491.7504 470.474 490.5844 470.032 488.2394 L 469.896 487.5694 L 469.73 486.8344 L 469.53 486.0264 L 469.303 485.1414 L 469.178 484.6664 C 467.94 479.9834 467.661 477.1084 468.606 473.4114 C 469.214 471.0364 470.692 469.3864 473.641 467.8174 L 474.296 467.4824 C 474.634 467.3144 474.99033 467.14773 475.365 466.9824 L 476.138 466.6474 L 476.96 466.3094 L 477.834 465.9674 L 478.76 465.6204 L 479.739 465.2664 L 480.773 464.9044 L 483.368 464.0264 L 484.847 463.5124 L 485.763 463.1814 L 486.623 462.8604 L 487.429 462.5454 L 488.183 462.2374 L 488.883 461.9374 C 489.59007 461.62755 490.28035 461.28074 490.951 460.8984 L 491.437 460.6034 C 493.212 459.4704 494.005 458.3034 494.137 456.8234 C 494.426 453.5414 491.879 450.0234 486.446 446.3234 L 485.587 445.7534 L 484.687 445.1804 L 483.737 444.6044 L 483.245 444.3154 L 482.226 443.7364 C 481.706 443.44507 481.16833 443.1534 480.613 442.8614 L 479.477 442.2784 C 479.285 442.1784 479.09 442.0784 478.894 441.9844 L 477.694 441.3954 L 476.447 440.8034 C 475.81233 440.5074 475.16 440.21007 474.49 439.9114 C 474.27986 439.81897 474.11514 439.6467 474.0322 439.4326 C 473.9493 439.21855 473.95497 438.9803 474.048 438.7704 Z" fill="#639bff"/>
                </g>
                <g id="Group_29">
                    <title>box</title>
                    <g id="Group_46">
                        <title>矩形</title>
                        <g id="Graphic_49">
                            <title>蒙版</title>
                            <rect x="301.677" y="496.6764" width="154.8" height="158.4" fill="url(#Obj_Gradient)"/>
                        </g>
                        <g id="Group_47">
                            <title>Mask_by_蒙版</title>
                            <g id="Graphic_48">
                                <title>矩形-2</title>
                                <path d="M 308.638 499.5564 L 457.152 499.5564 L 457.152 516.4204 L 437.537 536.9964 L 308.637 536.9964 L 308.637 499.5564 Z" fill="#4284fe"/>
                            </g>
                        </g>
                    </g>
                    <g id="Group_42">
                        <title>路径_15</title>
                        <g id="Graphic_45">
                            <title>蒙版-2</title>
                            <rect x="456.477" y="496.6694" width="70.438" height="158.406" fill="url(#Obj_Gradient_2)"/>
                        </g>
                        <g id="Group_43">
                            <title>Mask_by_蒙版-2</title>
                            <g id="Graphic_44">
                                <title>路径_15-2</title>
                                <path d="M 457.557 496.6764 L 457.557 522.1764 L 473.057 538.7294 L 528.002 536.9924 L 528.002 496.6764 Z" fill="#4284fe"/>
                            </g>
                        </g>
                    </g>
                    <g id="Group_38">
                        <title>编组</title>
                        <g id="Graphic_41">
                            <title>矩形-3</title>
                            <path d="M 303.041 496.6764 L 458.016 496.6764 L 438.292 522.1414 L 283.317 522.1414 Z" fill="#aacff9"/>
                        </g>
                        <g id="Graphic_40">
                            <title>矩形-4</title>
                            <rect x="283.321" y="522.1374" width="154.969" height="9.094" fill="#76a6f3"/>
                        </g>
                        <g id="Graphic_39">
                            <title>路径_13</title>
                            <path d="M 458.016 496.6764 L 438.292 522.1414 L 438.292 531.2414 L 458.016 505.8514 L 458.016 496.6814 Z" fill="#65a7f8"/>
                        </g>
                    </g>
                    <g id="Graphic_37">
                        <title>矩形-5</title>
                        <path d="M 493.238 581.6364 C 497.35024 581.6319 501.29535 583.26346 504.20314 586.17126 C 507.11094 589.07905 508.7425 593.02416 508.738 597.1364 L 508.738 623.3964 L 477.738 623.3964 L 477.738 597.1334 C 477.7343 593.0217 479.3662 589.07734 482.2739 586.1702 C 485.1816 583.26305 489.1263 581.6319 493.238 581.6364 Z" fill="#3c7de2"/>
                    </g>
                    <g id="Group_33">
                        <title>编组_2</title>
                        <g id="Graphic_36">
                            <title>矩形备份_17</title>
                            <rect x="473.508" y="522.1374" width="70.438" height="9.094" fill="#76a6f3"/>
                        </g>
                        <g id="Graphic_35">
                            <title>矩形-6</title>
                            <path d="M 528.459 496.6764 L 458.016 496.6764 L 473.516 522.1414 L 543.957 522.1414 Z" fill="#aacff9"/>
                        </g>
                        <g id="Graphic_34">
                            <title>路径_13-2</title>
                            <path d="M 458.016 496.6764 L 473.516 522.1414 L 473.516 531.2414 L 458.016 505.8514 L 458.016 496.6814 Z" fill="#65a7f8"/>
                        </g>
                    </g>
                    <g id="Graphic_32">
                        <title>路径-3</title>
                        <path d="M 393.821 595.7484 C 396.1221 595.8007 397.9789 597.6464 398.045 599.9471 C 398.1111 602.24784 396.3633 604.1971 394.069 604.3814 L 393.821 604.3884 L 327.71 604.3884 C 325.40892 604.3361 323.5521 602.4904 323.486 600.1897 C 323.41992 597.88896 325.1677 595.9397 327.462 595.7554 L 327.71 595.7484 Z" fill="#b3d4ff"/>
                    </g>
                    <g id="Graphic_31">
                        <title>椭圆形</title>
                        <circle cx="332.618" cy="572.9964" r="8.45301350706471" fill="#b3d4ff"/>
                    </g>
                    <g id="Graphic_30">
                        <title>路径-4</title>
                        <path d="M 421.998 618.7884 C 424.2991 618.8407 426.1559 620.6864 426.222 622.9871 C 426.2881 625.28784 424.5403 627.2371 422.246 627.4214 L 421.998 627.4284 L 327.71 627.4284 C 325.40892 627.3761 323.5521 625.5304 323.486 623.2297 C 323.41992 620.92896 325.1677 618.9797 327.462 618.7954 L 327.71 618.7884 Z" fill="#b3d4ff"/>
                    </g>
                </g>
                <g id="Group_26">
                    <title>收藏</title>
                    <g id="Graphic_28">
                        <title>路径-5</title>
                        <path d="M 414.612 427.2474 L 419.906 434.7344 C 420.91843 436.16326 422.56793 437.0039 424.319 436.9834 L 433.485 436.8664 C 435.50894 436.84193 437.37155 437.9677 438.2908 439.77097 C 439.21007 441.57427 439.0268 443.7429 437.818 445.3664 L 432.337 452.7134 C 431.2882 454.1171 430.99867 455.94753 431.563 457.6064 L 434.507 466.2874 C 435.15824 468.2059 434.6635 470.3277 433.2309 471.7603 C 431.7983 473.1929 429.67647 473.68764 427.758 473.0364 L 419.075 470.0934 C 417.41616 469.53095 415.58677 469.82077 414.183 470.8684 L 406.834 476.3564 C 405.2107 477.56604 403.0416 477.74974 401.238 476.83033 C 399.4344 475.9109 398.30876 474.0477 398.334 472.0234 L 398.451 462.8574 C 398.4728 461.10623 397.6328 459.4561 396.204 458.4434 L 388.716 453.1434 C 387.06163 451.97384 386.21483 449.9664 386.53172 447.9653 C 386.8486 445.9642 388.2742 444.3166 390.209 443.7154 L 398.963 440.9934 C 400.6348 440.47417 401.94377 439.1652 402.463 437.4934 L 405.185 428.7374 C 405.78845 426.80467 407.43596 425.38153 409.43587 425.06543 C 411.4358 424.74933 413.4419 425.595 414.612 427.2474 Z" fill="url(#Obj_Gradient_3)"/>
                    </g>
                    <g id="Graphic_27">
                        <title>路径-6</title>
                        <path d="M 415.439 461.9744 C 411.04724 462.6016 406.9765 459.55567 406.339 455.1654 C 406.21173 454.49304 406.46025 453.8047 406.98766 453.3687 C 407.51507 452.9327 408.2379 452.81806 408.8743 453.0695 C 409.51073 453.32095 409.96 453.89866 410.047 454.5774 C 410.24355 456.07975 411.2401 457.357 412.6495 457.9131 C 414.05893 458.46914 415.6591 458.21635 416.8285 457.2529 C 417.9979 456.28944 418.55214 454.7672 418.276 453.2774 C 418.1479 452.6046 418.3962 451.91537 418.924 451.4789 C 419.4518 451.0424 420.17536 450.92784 420.8122 451.17997 C 421.449 451.4321 421.89804 452.0109 421.984 452.6904 C 422.734 457.0617 419.80523 461.21554 415.436 461.9774 Z" fill="#feffff"/>
                    </g>
                </g>
                <g id="Graphic_25">
                    <title>椭圆形-2</title>
                    <path d="M 519.477 462.1164 C 523.45345 462.1164 526.677 458.89285 526.677 454.9164 C 526.677 450.93995 523.45345 447.7164 519.477 447.7164 C 515.50055 447.7164 512.277 450.93995 512.277 454.9164 C 512.277 456.82596 513.03557 458.6573 514.38583 460.00757 C 515.7361 461.35783 517.56744 462.1164 519.477 462.1164 Z" fill="url(#Obj_Gradient_4)"/>
                </g>
                <g id="Group_15">
                    <title>城市</title>
                    <g id="Group_22">
                        <title>叶子</title>
                        <g id="Graphic_24">
                            <title>路径_7</title>
                            <path d="M 218.532 646.9844 C 218.532 646.9844 198.1 632.8714 196.5 617.7574 C 220.441 614.2134 218.532 646.9844 218.532 646.9844 Z" fill="#c5d9fe"/>
                        </g>
                        <g id="Graphic_23">
                            <title>路径-7</title>
                            <path d="M 202.302 622.1964 C 202.50547 622.0076 202.81704 621.99776 203.032 622.1734 L 203.087 622.2254 L 217.465 637.6924 C 217.6661 637.9058 217.66648 638.2389 217.46584 638.4527 C 217.2652 638.6666 216.93282 638.6875 216.707 638.5004 L 216.652 638.4484 L 202.277 622.9814 C 202.17613 622.874 202.12208 622.731 202.12677 622.5837 C 202.13146 622.4365 202.1945 622.2971 202.302 622.1964 Z" fill="#feffff"/>
                        </g>
                    </g>
                    <g id="Group_19">
                        <title>叶子-2</title>
                        <g id="Graphic_21">
                            <title>路径_7-2</title>
                            <path d="M 218.517 646.4364 C 218.517 646.4364 195.617 615.3364 200.917 592.2924 C 237.922 599.2044 218.517 646.4364 218.517 646.4364 Z" fill="#e2ebff"/>
                        </g>
                        <g id="Graphic_20">
                            <title>路径-8</title>
                            <path d="M 207.2 601.7564 C 207.5948 601.5811 208.0584 601.72464 208.285 602.0924 L 208.34 602.1924 L 221.654 632.2234 C 221.82924 632.63735 221.6578 633.1165 221.25973 633.3253 C 220.86166 633.53416 220.36998 633.4029 220.129 633.0234 L 220.075 632.9234 L 206.76 602.8924 C 206.56993 602.45715 206.76634 601.95006 207.2 601.7564 Z" fill="#feffff"/>
                        </g>
                    </g>
                    <g id="Graphic_18">
                        <title>形状结合</title>
                        <path d="M 228.885 577.3164 L 264.597 577.3164 L 264.597 646.4364 L 228.885 646.4364 Z M 250.777 599.2044 L 286.489 599.2044 L 286.489 646.4364 L 250.777 646.4364 Z" fill="#d0e0ff"/>
                    </g>
                    <g id="Graphic_17">
                        <title>形状结合-2</title>
                        <path d="M 218.517 577.3164 L 254.229 577.3164 L 254.229 646.4364 L 218.517 646.4364 Z M 243.861 599.2044 L 279.577 599.2044 L 279.577 646.4364 L 243.861 646.4364 L 243.861 599.2044 Z" fill="#e9f3fc"/>
                    </g>
                    <g id="Graphic_16">
                        <title>形状结合-3</title>
                        <path d="M 225.429 586.5324 L 246.165 586.5324 L 246.165 592.2924 L 225.429 592.2924 Z M 225.429 601.5084 L 246.165 601.5084 L 246.165 607.2684 L 225.429 607.2684 Z M 258.837 604.9644 L 273.813 604.9644 L 273.813 609.5724 L 258.837 609.5724 Z M 258.837 615.3324 L 273.813 615.3324 L 273.813 619.9404 L 258.837 619.9404 Z M 258.837 625.7004 L 273.813 625.7004 L 273.813 630.3084 L 258.837 630.3084 Z M 258.837 636.0684 L 273.813 636.0684 L 273.813 640.6764 L 258.837 640.6764 Z M 225.429 616.4844 L 246.165 616.4844 L 246.165 622.2444 L 225.429 622.2444 Z M 225.429 631.4604 L 246.165 631.4604 L 246.165 637.2204 L 225.429 637.2204 L 225.429 631.4564 Z" fill="#d2e1ff"/>
                    </g>
                </g>
                <g id="Group_7">
                    <title>城市右</title>
                    <g id="Graphic_14">
                        <title>矩形-7</title>
                        <rect x="582.837" y="591.7164" width="27.36" height="54.72" fill="#e9f3fe"/>
                    </g>
                    <g id="Graphic_13">
                        <title>矩形备份_11</title>
                        <rect x="566.997" y="607.5564" width="27.36" height="38.88" fill="#e9f3fe"/>
                    </g>
                    <g id="Graphic_12">
                        <title>矩形备份_12</title>
                        <rect x="559.797" y="621.9564" width="27.36" height="24.48" fill="#e9f3fe"/>
                    </g>
                    <g id="Graphic_11">
                        <title>矩形备份_13</title>
                        <rect x="610.197" y="591.7164" width="4.32" height="54.72" fill="#cddcff"/>
                    </g>
                    <g id="Graphic_10">
                        <title>矩形备份_14</title>
                        <rect x="594.357" y="607.5564" width="4.32" height="38.88" fill="#cddcff"/>
                    </g>
                    <g id="Graphic_9">
                        <title>矩形备份_15</title>
                        <rect x="574.197" y="621.9564" width="4.32" height="24.48" fill="#cddcff"/>
                    </g>
                    <g id="Graphic_8">
                        <title>路径_12</title>
                        <path d="M 534.087 644.8434 L 557.326 644.8434 L 564.111 629.1114 L 554.411 636.9774 L 554.411 623.5694 L 547.54 638.7564 L 543.748 620.4914 L 540.62 638.7564 L 534.087 626.9824 L 534.087 644.8434 Z" fill="#d2dfff"/>
                    </g>
                </g>
            </g>
        </g>
    </g>
</svg>
