<svg xmlns="http://www.w3.org/2000/svg" width="129.053" height="132.753" viewBox="0 0 129.053 132.753">
  <g id="组_2337" data-name="组 2337" transform="translate(3 3)">
    <path id="路径_236" data-name="路径 236" d="M6643.753,802.759l-14.872-41.574,17.182-28.694h36.252l13.716,28.694-18.358,41.574,36.934,32.76v23.725H6591.554" transform="translate(-6591.554 -732.492)" fill="none" stroke="#707070" stroke-linecap="round" stroke-linejoin="round" stroke-width="4"/>
    <g id="路径_539" data-name="路径 539" transform="matrix(0.995, -0.105, 0.105, 0.995, 35.602, 56.46)" fill="#309fff">
      <path d="M 17.73493194580078 34.83465957641602 C 13.83588123321533 34.83465957641602 10.15952110290527 33.20365142822266 7.383061408996582 30.24208068847656 C 4.556601524353027 27.22718048095703 3.000001430511475 23.20530891418457 3.000001430511475 18.91732978820801 C 3.000001430511475 14.62934970855713 4.556601524353027 10.6074800491333 7.383061408996582 7.59257984161377 C 10.15953159332275 4.631009578704834 13.83590126037598 2.999999761581421 17.73495101928711 2.999999761581421 C 21.63400077819824 2.999999761581421 25.31037139892578 4.631009578704834 28.08683204650879 7.592569828033447 C 30.91329193115234 10.60746955871582 32.46988296508789 14.62934017181396 32.46988296508789 18.91732025146484 C 32.46988296508789 23.20529937744141 30.91328239440918 27.22716903686523 28.08681106567383 30.24208068847656 C 25.31035232543945 33.20365142822266 21.63398170471191 34.83465957641602 17.73493194580078 34.83465957641602 Z" stroke="none"/>
      <path d="M 17.73495292663574 5.999996185302734 L 17.73496437072754 5.999996185302734 C 11.26428604125977 6.000007629394531 6.000007629394531 11.79469680786133 5.999996185302734 18.91732978820801 C 5.999996185302734 22.44028472900391 7.268442153930664 25.73347473144531 9.571674346923828 28.19026184082031 C 11.7749080657959 30.54038619995117 14.67400741577148 31.83465194702148 17.73493003845215 31.83465194702148 C 24.20559692382813 31.83465194702148 29.46987533569336 26.03996276855469 29.46987533569336 18.91730690002441 C 29.46987533569336 15.39436340332031 28.20144081115723 12.10117340087891 25.89820861816406 9.64439582824707 C 23.69497489929199 7.29426383972168 20.79587554931641 5.999996185302734 17.73495292663574 5.999996185302734 M 17.73495292663574 -3.814697265625e-06 C 27.5296745300293 -3.814697265625e-06 35.46988677978516 8.469573974609375 35.46987533569336 18.91731834411621 C 35.46987533569336 29.36507415771484 27.5296630859375 37.83465194702148 17.73493003845215 37.83465194702148 C 7.940196990966797 37.83466339111328 -3.814697265625e-06 29.36507415771484 -3.814697265625e-06 18.91732978820801 C 7.62939453125e-06 8.469585418701172 7.940208435058594 7.62939453125e-06 17.73495292663574 -3.814697265625e-06 Z" stroke="none" fill="#2680eb"/>
    </g>
  </g>
</svg>
