<svg xmlns="http://www.w3.org/2000/svg" width="25.057" height="27.992" viewBox="0 0 25.057 27.992">
    <g id="组_2381" data-name="组 2381" transform="translate(-70.704 -796.784)">
        <path id="路径_554" data-name="路径 554" d="M6786.281,3634.564a51.817,51.817,0,0,1,10.83-17.372,45.68,45.68,0,0,1,14.211-10.311,21.285,21.285,0,0,1-.39,3.992c-.13.47-.849,3.474-1.146,4.148-1.143,1.071-5.917,2.762-6.205,2.809a9.47,9.47,0,0,0,4.669.445,21.716,21.716,0,0,0-1.333,2.094,9.687,9.687,0,0,1-1.7,2.049,30.984,30.984,0,0,1-6.156.76c.48.658,3.482,1.635,3.609,1.666-3.157,2.775-3.587,2.647-4.2,2.789a8.172,8.172,0,0,1-2.968-.414,3.113,3.113,0,0,0-2.47.156c-2.045,1.373-3.075,5.047-2.727,5.007S6786.281,3634.564,6786.281,3634.564Z" transform="translate(-6715.577 -2809.788)" fill="#fff"/>
        <g id="组_1391" data-name="组 1391" transform="translate(71.845 797.284)">
            <path id="路径_112" data-name="路径 112" d="M0,0V4.465" transform="translate(3.092 0)" fill="#fff" stroke="#fff" stroke-linecap="round" stroke-width="1"/>
            <line id="直线_22" data-name="直线 22" x2="6.276" transform="translate(0 3.183)" fill="none" stroke="#fff" stroke-linecap="round" stroke-width="1"/>
            <path id="路径_544" data-name="路径 544" d="M0,0V1.15" transform="translate(3.092 6)" fill="#fff" stroke="#fff" stroke-linecap="round" stroke-width="1"/>
        </g>
    </g>
</svg>
