<svg xmlns="http://www.w3.org/2000/svg" width="356.94" height="242.408" viewBox="0 0 356.94 242.408">
    <g id="组_2370" data-name="组 2370" transform="translate(55 20)">
        <g id="路径_716" data-name="路径 716" transform="translate(-28.653 -118.458) rotate(48)" fill="none">
            <path d="M161.509,5.415,124,58l27.137,28.589Z" stroke="none"/>
            <path d="M 160.0132293701172 9.234970092773438 L 125.2928924560547 57.90951156616211 L 150.4122467041016 84.37232971191406 L 160.0132293701172 9.234970092773438 M 161.5093994140625 5.415451049804688 L 151.1371917724609 86.58856201171875 L 124 58 L 161.5093994140625 5.415451049804688 Z" stroke="none" fill="#fff"/>
        </g>
        <g id="路径_718" data-name="路径 718" transform="translate(-28.653 -118.458) rotate(48)" fill="none">
            <path d="M161.509,5.415,211.524,30.9,151.137,86.589Z" stroke="none"/>
            <path d="M 162.3212738037109 6.951446533203125 L 152.4770202636719 83.99263000488281 L 209.7898864746094 31.13790512084961 L 162.3212738037109 6.951446533203125 M 161.5094146728516 5.415451049804688 L 211.5238952636719 30.89909744262695 L 151.1371917724609 86.58856201171875 L 161.5094146728516 5.415451049804688 Z" stroke="none" fill="#fff"/>
        </g>
        <g id="路径_719" data-name="路径 719" transform="translate(-26.34 -120.541) rotate(48)" fill="none">
            <path d="M160.892,179.253,213.119,30.9,151.137,87.782Z" stroke="none"/>
            <path d="M 161.4169616699219 174.7488555908203 L 210.8472290039062 34.34150314331055 L 152.18505859375 88.17742156982422 L 161.4169616699219 174.7488555908203 M 160.8915710449219 179.2526550292969 L 151.1371917724609 87.78179168701172 L 213.1192932128906 30.89909362792969 L 160.8915710449219 179.2526550292969 Z" stroke="none" fill="#fff"/>
        </g>
        <g id="路径_720" data-name="路径 720" transform="translate(-28.653 -118.458) rotate(48)" fill="none">
            <path d="M185.58,103.223,266.594,40.3l-55.337-9.537Z" stroke="none"/>
            <path d="M 187.6624755859375 100.3394012451172 L 264.190673828125 40.90056228637695 L 211.9181671142578 31.89186096191406 L 187.6624755859375 100.3394012451172 M 185.5795593261719 103.223388671875 L 211.2572021484375 30.76321220397949 L 266.5940856933594 40.30003356933594 L 185.5795593261719 103.223388671875 Z" stroke="none" fill="#fff"/>
        </g>
        <g id="路径_721" data-name="路径 721" transform="translate(117.782 -130.552) rotate(48)" fill="none">
            <path d="M175.954,155.978l-24.816-48.064L194.032-2.752Z" stroke="none"/>
            <path d="M 175.3324890136719 152.5955047607422 L 192.1605529785156 4.843544483184814 L 152.2323913574219 107.8559265136719 L 175.3324890136719 152.5955047607422 M 175.9536743164062 155.9782867431641 L 151.1371917724609 107.9144592285156 L 194.0321197509766 -2.751958131790161 L 175.9536743164062 155.9782867431641 Z" stroke="none" fill="#fff"/>
        </g>
        <g id="路径_722" data-name="路径 722" transform="translate(-28.653 -118.458) rotate(48)" fill="#dfe9f5">
            <path d="M 263.9053649902344 37.37471389770508 L 163.5449676513672 5.536653995513916 L 239.8240966796875 -8.994943618774414 L 263.9053649902344 37.37471389770508 Z" stroke="none"/>
            <path d="M 239.5519561767578 -8.434099197387695 L 165.5805358886719 5.65785026550293 L 262.9046630859375 36.53269195556641 L 239.5519561767578 -8.434099197387695 M 240.0962524414062 -9.555768966674805 L 264.9060668945312 38.21671676635742 L 161.5093994140625 5.415445327758789 L 240.0962524414062 -9.555768966674805 Z" stroke="none" fill="#fff"/>
        </g>
        <g id="路径_723" data-name="路径 723" transform="translate(255.35 192.167) rotate(-132)" fill="none">
            <path d="M241.087,46.94,72.429,122.708,181.711,5.415Z" stroke="none"/>
            <path d="M 181.8498077392578 6.733047485351562 L 76.53611755371094 119.7670593261719 L 239.0701904296875 46.75008392333984 L 181.8498077392578 6.733047485351562 M 181.7106475830078 5.415443420410156 L 241.0870361328125 46.94029235839844 L 72.4288330078125 122.7084884643555 L 181.7106475830078 5.415443420410156 Z" stroke="none" fill="#fff"/>
        </g>
        <g id="路径_715" data-name="路径 715" transform="matrix(-0.891, -0.454, 0.454, -0.891, 247.85, 173.305)" fill="none">
            <path d="M70.83,111.61,146.627,0,0,100.848Z" stroke="none"/>
            <path d="M 70.35667419433594 110.5265426635742 L 142.8116607666016 3.837621212005615 L 2.649898290634155 100.2390441894531 L 70.35667419433594 110.5265426635742 M 70.82974243164062 111.6099014282227 L 1.923339914355893e-05 100.847900390625 L 146.6266784667969 3.084716809098609e-06 L 70.82974243164062 111.6099014282227 Z" stroke="none" fill="#fff"/>
        </g>
        <g id="路径_711" data-name="路径 711" transform="matrix(-0.891, -0.454, 0.454, -0.891, 146.581, 78.673)" fill="none">
            <path d="M37.509,81.173,0,28.589,27.137,0Z" stroke="none"/>
            <path d="M 36.01319885253906 77.35349273681641 L 26.41229248046875 2.216241359710693 L 1.292912364006042 28.67904853820801 L 36.01319885253906 77.35349273681641 M 37.50938034057617 81.17300415039062 L 2.383660284976941e-05 28.58856201171875 L 27.13723564147949 5.889892690902343e-06 L 37.50938034057617 81.17300415039062 Z" stroke="none" fill="#fff"/>
        </g>
        <g id="路径_712" data-name="路径 712" transform="matrix(-0.891, -0.454, 0.454, -0.891, 162.288, 133.112)" fill="none">
            <path d="M52,5.426,38.711,69.964,6.46,13.075Z" stroke="none"/>
            <path d="M 50.72128677368164 6.653541564941406 L 8.034210205078125 13.82444000244141 L 38.26781463623047 67.15476989746094 L 50.72128677368164 6.653541564941406 M 51.99502182006836 5.425559997558594 L 38.71063232421875 69.96354675292969 L 6.459781646728516 13.07491302490234 L 51.99502182006836 5.425559997558594 Z" stroke="none" fill="#fff"/>
        </g>
        <g id="路径_713" data-name="路径 713" transform="matrix(-0.891, -0.454, 0.454, -0.891, 118.462, 108.762)" fill="none">
            <path d="M0,2.616,14.317,40.471,57.884,0Z" stroke="none"/>
            <path d="M 55.2065315246582 1.122013092041016 L 1.423423767089844 3.552783966064453 L 14.72657775878906 38.7255744934082 L 55.2065315246582 1.122013092041016 M 57.88367462158203 -3.814697265625e-06 L 14.31743621826172 40.47054672241211 L 1.52587890625e-05 2.616096496582031 L 57.88367462158203 -3.814697265625e-06 Z" stroke="none" fill="#fff"/>
        </g>
        <g id="路径_714" data-name="路径 714" transform="matrix(-0.891, -0.454, 0.454, -0.891, 202.561, 124.202)" fill="none">
            <path d="M0,0,70.548,43.741,11.221,144.948Z" stroke="none"/>
            <path d="M 1.1492919921875 1.889175415039062 L 11.97216415405273 141.6903228759766 L 69.19232940673828 44.07666015625 L 1.1492919921875 1.889175415039062 M 4.57763671875e-05 1.52587890625e-05 L 70.54834747314453 43.74079895019531 L 11.22140502929688 144.9484710693359 L 4.57763671875e-05 1.52587890625e-05 Z" stroke="none" fill="#fff"/>
        </g>
        <g id="路径_724" data-name="路径 724" transform="translate(-32.991 4.341) rotate(-31)" fill="none">
            <path d="M0,0,98.569,102.942,27.257,158.908Z" stroke="none"/>
            <path d="M 1.538093566894531 3.052337646484375 L 27.95882415771484 157.0853424072266 L 97.08370971679688 102.8361434936523 L 1.538093566894531 3.052337646484375 M -6.103515625e-05 3.0517578125e-05 L 98.56914520263672 102.9415588378906 L 27.25677490234375 158.9075012207031 L -6.103515625e-05 3.0517578125e-05 Z" stroke="none" fill="#fff"/>
        </g>
    </g>
</svg>
